<?xml version="1.0" encoding="iso-8859-1"?>
<!-- Generator: Adobe Illustrator 19.0.0, SVG Export Plug-In . SVG Version: 6.00 Build 0)  -->
<svg version="1.1" id="Layer_1" xmlns="http://www.w3.org/2000/svg" xmlns:xlink="http://www.w3.org/1999/xlink" x="0px" y="0px"
	 viewBox="0 0 512 512" style="enable-background:new 0 0 512 512;" xml:space="preserve">
<g transform="translate(1 1)">
	<g>
		<g>
			<path d="M502.467,471.32h-17.681C501.279,459.204,511,438.492,511,403.053c0-85.333-52.907-145.067-128-145.067h-4.811
				c-1.069-0.563-2.253-0.853-3.723-0.853c-1.707,0-4.267,0.853-5.973,2.56c-9.325,9.325-20.003,5.969-26.437,2.47
				c-1.802-1.087-3.026-2.066-3.43-2.47l-2.56-1.707h-0.932c-2.315-0.858-4.731-0.816-6.773,0h-33.256l-0.816,0.816
				c-0.934,0.42-1.848,0.995-2.597,1.744c-4.524,4.241-9.326,5.756-13.791,5.836c-8.635-0.194-15.824-5.585-16.929-6.69l-2.56-1.707
				h-0.924c-1.677-0.63-3.508-0.589-5.253,0H152.6c-75.093,0-128,59.733-128,145.067c0,35.439,9.721,56.151,26.214,68.267H7.533
				c-5.12,0-8.533,3.413-8.533,8.533s3.413,8.533,8.533,8.533H152.6H383h119.467c5.12,0,8.533-3.413,8.533-8.533
				S507.587,471.32,502.467,471.32z M373.613,278.467C389.827,297.24,408.6,322.84,408.6,343.32c0,5.12-3.413,8.533-8.533,8.533
				c-5.12,0-8.533-3.413-8.533-8.533c0-19.627-16.213-41.813-31.573-59.733C365.08,282.733,369.347,281.027,373.613,278.467z
				 M296.813,278.467C313.027,297.24,331.8,322.84,331.8,343.32c0,5.12-3.413,8.533-8.533,8.533s-8.533-3.413-8.533-8.533
				c0-19.627-15.36-41.813-30.72-59.733C288.28,282.733,292.547,281.027,296.813,278.467z M41.667,403.053
				c0-88.747,55.467-128,110.933-128c55.467,0,110.933,39.253,110.933,128c0,65.707-32.427,68.267-110.933,68.267
				S41.667,468.76,41.667,403.053z M254.386,471.32c2.025-1.487,3.948-3.104,5.763-4.862c0.04-0.038,0.08-0.077,0.12-0.115
				c0.179-0.175,0.361-0.346,0.538-0.524c12.225-11.857,19.12-30.1,19.742-58.497c0.004-0.161,0.009-0.319,0.012-0.481
				c0.024-1.245,0.04-2.505,0.04-3.789c0-1.643-0.026-3.272-0.065-4.896c-0.01-0.414-0.024-0.826-0.036-1.239
				c-0.041-1.364-0.096-2.722-0.164-4.072c-0.013-0.259-0.024-0.519-0.038-0.777c-2.886-52.731-26.564-94.535-63.172-116.684
				c-0.176-0.108-0.347-0.224-0.524-0.332h35.194c28.254,26.443,45.872,52.56,45.872,68.267c0,14.507,11.093,25.6,25.6,25.6
				c14.507,0,25.6-11.093,24.747-25.6c0-22.734-15.574-47.135-32.351-68.267h12.932c28.254,26.443,45.872,52.56,45.872,68.267
				c0,14.507,11.093,25.6,25.6,25.6c14.507,0,25.6-11.093,24.747-26.453c0-22.26-14.931-46.116-31.303-66.938
				c51.75,4.69,100.423,44.392,100.423,127.525c0,65.707-32.427,68.267-110.933,68.267H254.386z"/>
			<path d="M95.427,422.68l-8.533,8.533c-3.413,3.413-3.413,8.533,0,11.947c1.707,1.707,3.413,2.56,5.973,2.56
				c2.56,0,4.267-0.853,5.973-2.56l8.533-8.533c3.413-3.413,3.413-8.533,0-11.947S98.84,419.267,95.427,422.68z"/>
			<path d="M115.907,311.747c-3.413-3.413-8.533-3.413-11.947,0s-3.413,8.533,0,11.947l8.533,8.533
				c1.707,1.707,3.413,2.56,5.973,2.56s4.267-0.853,5.973-2.56c3.413-3.413,3.413-8.533,0-11.947L115.907,311.747z"/>
			<path d="M155.16,371.48l-8.533,8.533c-3.413,3.413-3.413,8.533,0,11.947c1.707,1.707,3.413,2.56,5.973,2.56
				c2.56,0,4.267-0.853,5.973-2.56l8.533-8.533c3.413-3.413,3.413-8.533,0-11.947S158.573,368.067,155.16,371.48z"/>
			<path d="M209.773,422.68c-3.413-3.413-8.533-3.413-11.947,0s-3.413,8.533,0,11.947l8.533,8.533
				c1.707,1.707,3.413,2.56,5.973,2.56c2.56,0,4.267-0.853,5.973-2.56c3.413-3.413,3.413-8.533,0-11.947L209.773,422.68z"/>
			<path d="M203.8,351.853c5.12,0,8.533-3.413,8.533-8.533v-8.533c0-5.12-3.413-8.533-8.533-8.533c-5.12,0-8.533,3.413-8.533,8.533
				v8.533C195.267,348.44,198.68,351.853,203.8,351.853z"/>
			<path d="M448.707,84.76l25.6-25.6V47.213l-25.6-25.6H436.76l-25.6,25.6V59.16l25.6,25.6H448.707z M442.733,39.533l13.653,13.653
				L442.733,66.84L429.08,53.187L442.733,39.533z"/>
			<path d="M203.8,78.787c14.507,0,25.6,11.093,25.6,25.6c0,5.12,3.413,8.533,8.533,8.533s8.533-3.413,8.533-8.533
				c0-14.507,11.093-25.6,25.6-25.6c5.12,0,8.533-3.413,8.533-8.533s-3.413-8.533-8.533-8.533c-14.507,0-25.6-11.093-25.6-25.6
				c0-5.12-3.413-8.533-8.533-8.533S229.4,31,229.4,36.12c0,14.507-11.093,25.6-25.6,25.6c-5.12,0-8.533,3.413-8.533,8.533
				S198.68,78.787,203.8,78.787z M237.933,61.72c2.56,3.413,5.12,5.973,8.533,8.533c-3.413,2.56-5.973,5.12-8.533,8.533
				c-2.56-3.413-5.12-5.973-8.533-8.533C232.813,67.693,235.373,65.133,237.933,61.72z"/>
			<path d="M314.733,198.253h8.533v8.533c0,5.12,3.413,8.533,8.533,8.533c5.12,0,8.533-3.413,8.533-8.533v-8.533h8.533
				c5.12,0,8.533-3.413,8.533-8.533s-3.413-8.533-8.533-8.533h-8.533v-8.533c0-5.12-3.413-8.533-8.533-8.533
				c-5.12,0-8.533,3.413-8.533,8.533v8.533h-8.533c-5.12,0-8.533,3.413-8.533,8.533S309.613,198.253,314.733,198.253z"/>
			<path d="M135.533,189.72c5.12,0,8.533-3.413,8.533-8.533s-3.413-8.533-8.533-8.533S127,176.067,127,181.187
				S130.413,189.72,135.533,189.72z"/>
			<path d="M50.2,78.787c5.12,0,8.533-3.413,8.533-8.533S55.32,61.72,50.2,61.72s-8.533,3.413-8.533,8.533S45.08,78.787,50.2,78.787
				z"/>
		</g>
	</g>
</g>
<g>
</g>
<g>
</g>
<g>
</g>
<g>
</g>
<g>
</g>
<g>
</g>
<g>
</g>
<g>
</g>
<g>
</g>
<g>
</g>
<g>
</g>
<g>
</g>
<g>
</g>
<g>
</g>
<g>
</g>
</svg>
