<?xml version="1.0" standalone="no"?>
<!DOCTYPE svg PUBLIC "-//W3C//DTD SVG 20010904//EN"
 "http://www.w3.org/TR/2001/REC-SVG-20010904/DTD/svg10.dtd">
<svg version="1.0" xmlns="http://www.w3.org/2000/svg"
 width="673.000000pt" height="769.000000pt" viewBox="0 0 673.000000 769.000000"
 preserveAspectRatio="xMidYMid meet">
<metadata>
Created by potrace 1.16, written by Peter Selinger 2001-2019
</metadata>
<g transform="translate(0.000000,769.000000) scale(0.100000,-0.100000)"
fill="#000000" stroke="none">
<path d="M3305 7570 c-33 -20 -87 -52 -120 -70 -33 -18 -104 -60 -158 -92 -55
-32 -100 -58 -102 -58 -2 0 -52 -29 -112 -63 -246 -145 -301 -176 -358 -208
-33 -18 -100 -57 -148 -86 -48 -29 -89 -53 -92 -53 -2 0 -39 -21 -82 -47 -43
-25 -107 -63 -143 -83 -36 -20 -153 -87 -260 -150 -107 -62 -211 -122 -230
-133 -19 -10 -75 -43 -125 -72 -49 -28 -155 -89 -235 -135 -80 -46 -189 -109
-243 -142 -54 -32 -100 -58 -102 -58 -2 0 -61 -34 -130 -75 -70 -41 -129 -75
-130 -75 -2 0 -52 -29 -112 -63 -59 -35 -141 -83 -180 -106 l-73 -42 0 -1852
1 -1852 152 -87 c84 -47 206 -117 272 -155 430 -249 585 -339 700 -405 72 -41
231 -133 355 -205 124 -72 284 -164 355 -205 596 -344 907 -523 1198 -692
l167 -97 108 62 c59 34 125 72 147 84 22 13 81 46 130 75 50 29 162 94 250
145 88 50 248 143 355 205 107 62 267 154 355 205 88 50 248 143 355 205 107
62 251 145 320 185 69 39 202 116 295 170 265 153 287 166 330 190 22 13 81
46 130 75 50 29 165 96 258 149 l167 96 0 1852 0 1852 -112 66 c-62 36 -120
70 -128 75 -8 5 -53 31 -100 58 -80 46 -261 150 -538 310 l-123 71 -37 -20
c-20 -12 -77 -45 -127 -74 -49 -28 -155 -90 -235 -135 -80 -46 -197 -114 -260
-151 -63 -37 -160 -93 -214 -124 l-99 -58 39 -24 c21 -13 68 -40 104 -60 36
-20 109 -63 163 -95 54 -32 100 -58 103 -58 2 0 21 -11 42 -24 36 -22 327
-191 407 -236 22 -12 64 -36 93 -53 l52 -32 0 -1287 0 -1286 -112 -65 c-62
-36 -167 -96 -233 -135 -66 -38 -221 -128 -345 -199 -124 -71 -301 -174 -395
-228 -93 -54 -253 -146 -355 -205 -102 -59 -243 -140 -315 -182 -360 -209
-465 -268 -473 -268 -8 0 -110 58 -512 290 -107 62 -267 155 -355 205 -88 51
-200 116 -250 145 -49 29 -108 62 -130 75 -22 12 -67 38 -100 57 -33 19 -134
78 -225 130 -91 53 -205 119 -255 148 -49 29 -108 62 -130 75 -22 12 -93 53
-158 90 l-117 67 0 1287 0 1286 127 73 c71 40 135 77 143 82 8 5 40 24 70 41
30 18 129 75 220 127 91 52 219 126 285 164 66 38 127 73 135 78 8 5 40 24 70
41 30 18 129 75 220 127 91 52 219 126 285 164 66 38 127 73 135 78 8 5 40 24
70 41 30 18 129 75 220 127 91 52 219 126 285 164 66 38 127 73 135 78 8 5 40
24 70 41 30 18 129 75 220 127 314 181 411 237 456 262 24 13 44 29 44 35 0 5
-39 33 -87 60 -48 28 -95 55 -105 60 -9 6 -63 37 -120 69 -128 73 -318 183
-338 196 -17 11 -303 172 -310 175 -3 1 -32 -14 -65 -35z"/>
<path d="M3235 4993 c-206 -120 -423 -245 -652 -376 l-213 -122 0 -585 c0
-547 1 -586 18 -596 9 -6 37 -22 62 -36 25 -14 133 -76 240 -138 107 -63 224
-130 260 -150 36 -20 100 -58 143 -83 43 -26 81 -47 83 -47 3 0 45 -25 95 -55
50 -30 95 -55 100 -55 6 0 59 29 118 64 59 35 125 74 147 85 21 12 53 30 69
40 17 10 46 27 65 38 19 11 127 73 240 138 113 65 242 139 287 164 l83 46 -3
584 -2 583 -65 38 c-36 20 -141 81 -235 135 -93 54 -226 131 -295 170 -69 40
-188 109 -265 154 -77 44 -142 81 -145 80 -3 0 -63 -34 -135 -76z"/>
</g>
</svg>
